<mxfile host="app.diagrams.net" agent="Mozilla/5.0 (Macintosh; Intel Mac OS X 10_15_7) AppleWebKit/537.36 (KHTML, like Gecko) Chrome/128.0.0.0 Safari/537.36" version="24.7.13">
  <diagram name="第 1 页" id="sQu5RP01_Zt66Vj9mwGN">
    <mxGraphModel dx="660" dy="1796" grid="1" gridSize="10" guides="1" tooltips="1" connect="1" arrows="1" fold="1" page="1" pageScale="1" pageWidth="827" pageHeight="1169" math="0" shadow="0">
      <root>
        <mxCell id="0" />
        <mxCell id="1" parent="0" />
        <mxCell id="61Zvzn6ZXh-WBMZmpzXN-1" value="" style="rounded=0;whiteSpace=wrap;html=1;fillColor=#E5CCFF;" vertex="1" parent="1">
          <mxGeometry x="50" y="60" width="670" height="130" as="geometry" />
        </mxCell>
        <mxCell id="61Zvzn6ZXh-WBMZmpzXN-2" value="业务层" style="text;html=1;align=center;verticalAlign=middle;whiteSpace=wrap;rounded=0;" vertex="1" parent="1">
          <mxGeometry x="50" y="80" width="60" height="30" as="geometry" />
        </mxCell>
        <mxCell id="61Zvzn6ZXh-WBMZmpzXN-3" value="" style="rounded=1;whiteSpace=wrap;html=1;fillColor=#FFCCE6;strokeColor=#b85450;" vertex="1" parent="1">
          <mxGeometry x="124" y="-70" width="580" height="60" as="geometry" />
        </mxCell>
        <mxCell id="61Zvzn6ZXh-WBMZmpzXN-4" value="" style="rounded=0;whiteSpace=wrap;html=1;fillColor=#E5CCFF;" vertex="1" parent="1">
          <mxGeometry x="50" y="200" width="670" height="130" as="geometry" />
        </mxCell>
        <mxCell id="61Zvzn6ZXh-WBMZmpzXN-5" value="" style="rounded=0;whiteSpace=wrap;html=1;fillColor=#E5CCFF;" vertex="1" parent="1">
          <mxGeometry x="50" y="340" width="670" height="130" as="geometry" />
        </mxCell>
        <mxCell id="61Zvzn6ZXh-WBMZmpzXN-6" value="" style="rounded=0;whiteSpace=wrap;html=1;fillColor=#E5CCFF;" vertex="1" parent="1">
          <mxGeometry x="50" y="480" width="670" height="90" as="geometry" />
        </mxCell>
        <mxCell id="61Zvzn6ZXh-WBMZmpzXN-7" value="" style="rounded=0;whiteSpace=wrap;html=1;fillColor=#E5CCFF;" vertex="1" parent="1">
          <mxGeometry x="50" y="580" width="670" height="90" as="geometry" />
        </mxCell>
      </root>
    </mxGraphModel>
  </diagram>
</mxfile>
